<svg width="512" height="512" xmlns="http://www.w3.org/2000/svg" version="1.0" preserveAspectRatio="xMidYMid meet">
	<g>
		<rect id="svg_3" height="243" width="314" y="133.5" x="98" stroke="#000" fill="#fff" />
		<g transform="translate(0 512) scale(0.1 -0.1)" fill="#005AA5" id="svg_1" stroke="null">
			<path d="m0,2560l0,-2560l2560,0l2560,0l0,2560l0,2560l-2560,0l-2560,0l0,-2560zm3242,961c219,-50 383,-173 478,-361c28,-55 63,-160 56,-167c-2,-2 -77,-17 -167,-34c-90,-16 -173,-31 -185,-34c-17,-4 -25,6 -49,58c-32,71 -111,154 -177,185c-144,70 -351,68 -503,-3c-85,-41 -178,-133 -220,-219c-59,-121 -70,-179 -69,-371c1,-141 4,-183 22,-248c60,-217 193,-357 383,-402c165,-38 368,2 528,105l61,40l0,120l0,120l-220,0l-220,0l0,160l0,160l415,0l415,0l0,-380l0,-380l-62,-46c-81,-59 -235,-137 -346,-174c-377,-125 -786,-75 -1042,128c-255,203 -383,587 -325,977c65,434 353,727 770,784c106,15 354,5 457,-18zm-1532,-956l0,-955l-195,0l-195,0l0,955l0,955l195,0l195,0l0,-955z" id="svg_2" stroke="null" />
		</g>
	</g>
</svg>
